<?xml version="1.0"?>
<!-- Generated by SVGo -->
<svg width="1080" height="1080"
     xmlns="http://www.w3.org/2000/svg"
     xmlns:xlink="http://www.w3.org/1999/xlink">
<rect x="0" y="0" width="1080" height="1080" style="fill: #626249" />
<rect x="901" y="633" width="718" height="108" style="fill: #c8cd5b" />
<rect x="600" y="259" width="759" height="334" style="fill: #d85893" />
<circle cx="875" cy="513" r="108" style="fill: #81c32b" />
<circle cx="468" cy="458" r="90" style="fill: #ec76b4" />
<circle cx="1025" cy="242" r="10" style="fill: #da8e4f" />
<g style="font-family: serif; fill: white; font-size: 342pt">
<g transform="translate(540, 540)">
<text x="0" y="0" transform="rotate(0.000)" fill-opacity="1.000" >▝</text>
<text x="0" y="0" transform="rotate(15.405)" fill-opacity="0.970" >▝</text>
<text x="0" y="0" transform="rotate(30.810)" fill-opacity="0.940" >▝</text>
<text x="0" y="0" transform="rotate(46.216)" fill-opacity="0.910" >▝</text>
<text x="0" y="0" transform="rotate(61.621)" fill-opacity="0.880" >▝</text>
<text x="0" y="0" transform="rotate(77.026)" fill-opacity="0.850" >▝</text>
<text x="0" y="0" transform="rotate(92.431)" fill-opacity="0.820" >▝</text>
<text x="0" y="0" transform="rotate(107.836)" fill-opacity="0.790" >▝</text>
<text x="0" y="0" transform="rotate(123.241)" fill-opacity="0.760" >▝</text>
<text x="0" y="0" transform="rotate(138.647)" fill-opacity="0.730" >▝</text>
<text x="0" y="0" transform="rotate(154.052)" fill-opacity="0.700" >▝</text>
<text x="0" y="0" transform="rotate(169.457)" fill-opacity="0.670" >▝</text>
<text x="0" y="0" transform="rotate(184.862)" fill-opacity="0.640" >▝</text>
<text x="0" y="0" transform="rotate(200.267)" fill-opacity="0.610" >▝</text>
<text x="0" y="0" transform="rotate(215.673)" fill-opacity="0.580" >▝</text>
<text x="0" y="0" transform="rotate(231.078)" fill-opacity="0.550" >▝</text>
<text x="0" y="0" transform="rotate(246.483)" fill-opacity="0.520" >▝</text>
<text x="0" y="0" transform="rotate(261.888)" fill-opacity="0.490" >▝</text>
<text x="0" y="0" transform="rotate(277.293)" fill-opacity="0.460" >▝</text>
<text x="0" y="0" transform="rotate(292.699)" fill-opacity="0.430" >▝</text>
<text x="0" y="0" transform="rotate(308.104)" fill-opacity="0.400" >▝</text>
<text x="0" y="0" transform="rotate(323.509)" fill-opacity="0.370" >▝</text>
<text x="0" y="0" transform="rotate(338.914)" fill-opacity="0.340" >▝</text>
<text x="0" y="0" transform="rotate(354.319)" fill-opacity="0.310" >▝</text>
</g>
</g>
</svg>
