<?xml version="1.0"?>
<!-- Generated by SVGo -->
<svg width="720" height="720"
     xmlns="http://www.w3.org/2000/svg"
     xmlns:xlink="http://www.w3.org/1999/xlink">
<rect x="0" y="0" width="720" height="720" style="fill: #fa598b" />
<rect x="395" y="9" width="462" height="557" style="fill: #522840" />
<rect x="364" y="233" width="451" height="137" style="fill: #1a684e" />
<rect x="153" y="178" width="263" height="65" style="fill: #19324d" />
<rect x="143" y="364" width="51" height="130" style="fill: #3d2a72" />
<rect x="79" y="29" width="228" height="285" style="fill: #806d1b" />
<g style="font-family: serif; fill: #643332; font-size: 300pt">
<g transform="translate(360, 360)">
<text x="0" y="0" transform="rotate(0.000)" fill-opacity="1.000" >▴</text>
<text x="0" y="0" transform="rotate(26.241)" fill-opacity="0.970" >▴</text>
<text x="0" y="0" transform="rotate(52.481)" fill-opacity="0.940" >▴</text>
<text x="0" y="0" transform="rotate(78.722)" fill-opacity="0.910" >▴</text>
<text x="0" y="0" transform="rotate(104.963)" fill-opacity="0.880" >▴</text>
<text x="0" y="0" transform="rotate(131.203)" fill-opacity="0.850" >▴</text>
<text x="0" y="0" transform="rotate(157.444)" fill-opacity="0.820" >▴</text>
<text x="0" y="0" transform="rotate(183.685)" fill-opacity="0.790" >▴</text>
<text x="0" y="0" transform="rotate(209.925)" fill-opacity="0.760" >▴</text>
<text x="0" y="0" transform="rotate(236.166)" fill-opacity="0.730" >▴</text>
<text x="0" y="0" transform="rotate(262.407)" fill-opacity="0.700" >▴</text>
<text x="0" y="0" transform="rotate(288.647)" fill-opacity="0.670" >▴</text>
<text x="0" y="0" transform="rotate(314.888)" fill-opacity="0.640" >▴</text>
<text x="0" y="0" transform="rotate(341.129)" fill-opacity="0.610" >▴</text>
</g>
</g>
</svg>
